<svg id="レイヤー_1" data-name="レイヤー 1" xmlns="http://www.w3.org/2000/svg" viewBox="0 0 105.31 46"><defs><style>.cls-1{fill:none;}</style></defs><path d="M25.36,29.78c-.06-.93-.1-1.71-.12-2.64,0-1.22,0-2.24,0-3.46A7.64,7.64,0,0,0,25,21.83a2.89,2.89,0,0,0-1.45-1.89,4.68,4.68,0,0,0-1.39-.52,11.53,11.53,0,0,0-4.68-.09,5.73,5.73,0,0,0-1.27.36,3.39,3.39,0,0,0-2,2.19A2.69,2.69,0,0,0,14.06,23a.56.56,0,0,0,.06.21l3.78.09a1.68,1.68,0,0,1,.1-.67,1.15,1.15,0,0,1,.71-.72,2.24,2.24,0,0,1,1.51,0,1,1,0,0,1,.68.69.67.67,0,0,1-.09.6.89.89,0,0,1-.43.34l-.33.11c-.52.14-1,.23-1.51.33s-.78.13-1.2.21a14.64,14.64,0,0,0-1.61.42,3.44,3.44,0,0,0-1.29.76,2.72,2.72,0,0,0-.9,1.7,3.4,3.4,0,0,0,.05,1.31,3.11,3.11,0,0,0,2.23,2.37,5.47,5.47,0,0,0,3.7-.19A3.54,3.54,0,0,0,21,29.51l-.27-1.93a1.59,1.59,0,0,1-.74.64,2.71,2.71,0,0,1-.92.23,2.2,2.2,0,0,1-.72-.06,1,1,0,0,1-.53-.32.93.93,0,0,1-.24-.46.76.76,0,0,1,.25-.75,1.79,1.79,0,0,1,.46-.27c.44-.16.82-.29,1.27-.41a10,10,0,0,0,1.5-.55,3.76,3.76,0,0,1,0,1.16,2,2,0,0,1-.29.8L21,29.52c.09.28.16.51.25.78a1.14,1.14,0,0,0,.23.38h4.16A1.82,1.82,0,0,1,25.36,29.78Z"/><path d="M50.56,29.78c-.07-.93-.1-1.71-.12-2.64,0-1.22,0-2.24,0-3.46a7.17,7.17,0,0,0-.24-1.85,3,3,0,0,0-1.46-1.89,4.58,4.58,0,0,0-1.39-.52,11.53,11.53,0,0,0-4.68-.09,5.65,5.65,0,0,0-1.26.36,3.36,3.36,0,0,0-2,2.19A2.69,2.69,0,0,0,39.25,23a.83.83,0,0,0,.06.21l3.78.09a1.68,1.68,0,0,1,.1-.67A1.18,1.18,0,0,1,43.9,22a2.24,2.24,0,0,1,1.51,0,1,1,0,0,1,.68.69.64.64,0,0,1-.09.6.89.89,0,0,1-.43.34l-.33.11c-.52.14-1,.23-1.51.33s-.78.13-1.2.21a14.46,14.46,0,0,0-1.6.42,3.36,3.36,0,0,0-1.3.76,2.72,2.72,0,0,0-.92,1.7,3.4,3.4,0,0,0,0,1.31A3.11,3.11,0,0,0,41,30.77a5.44,5.44,0,0,0,3.69-.19,3.42,3.42,0,0,0,1.47-1.07l-.26-1.93a1.67,1.67,0,0,1-.75.64,3,3,0,0,1-.89.23,2.06,2.06,0,0,1-.78-.06,1.19,1.19,0,0,1-.53-.33.85.85,0,0,1-.24-.46.75.75,0,0,1,.25-.74,1.83,1.83,0,0,1,.46-.28c.44-.16.82-.28,1.27-.4a10,10,0,0,0,1.5-.56,4.58,4.58,0,0,1,0,1.17,1.77,1.77,0,0,1-.3.8l.27,1.93c.08.27.16.5.25.77a1.14,1.14,0,0,0,.23.38h4.16A1.65,1.65,0,0,1,50.56,29.78Z"/><path d="M70.24,19.23a8.32,8.32,0,0,0-2.54,0,5.79,5.79,0,0,0-3.27,1.62,5.36,5.36,0,0,0-1.68,3.51A6.32,6.32,0,0,0,63,26.77,5.6,5.6,0,0,0,65,29.82a5.38,5.38,0,0,0,2.22,1,8.45,8.45,0,0,0,3.47,0,5.38,5.38,0,0,0,2.22-1l-2.41-2.63a1.69,1.69,0,0,1-2.24.84,1.62,1.62,0,0,1-.85-.84,4.62,4.62,0,0,1-.32-1.08,6.6,6.6,0,0,1,0-2.26,2.88,2.88,0,0,1,.44-1.09,1.64,1.64,0,0,1,2.27-.46,1.55,1.55,0,0,1,.46.46,2.76,2.76,0,0,1,.46,1.09,6.13,6.13,0,0,1,0,2.26,4.16,4.16,0,0,1-.31,1.08l2.41,2.63a5.58,5.58,0,0,0,2-3.05,6.33,6.33,0,0,0,.22-2.41,5.36,5.36,0,0,0-1.68-3.51A5.78,5.78,0,0,0,70.24,19.23Z"/><path d="M7.65,25.83H4.77v-3.7H6.62c.36,0,.66,0,1,0a1.55,1.55,0,0,0,1.2-.65,1.52,1.52,0,0,0,.28-.68,3.21,3.21,0,0,0,0-.62,1.59,1.59,0,0,0-1.58-1.44H4.75V30.66H0V15H7.8c.31,0,.57,0,.88,0a5.49,5.49,0,0,1,5.16,5.81,3,3,0,0,1,0,.31,5.07,5.07,0,0,1-4.05,4.5A9.44,9.44,0,0,1,7.65,25.83Z"/><path d="M56.78,26.55a5.38,5.38,0,0,1,.9.22.72.72,0,0,1,.49.55.84.84,0,0,1-.22.77,1.29,1.29,0,0,1-.75.38,2.13,2.13,0,0,1-1.12-.1,1.72,1.72,0,0,1-.47-.28,1.22,1.22,0,0,1-.39-.58,1.77,1.77,0,0,1-.08-.6H51v.24a2.81,2.81,0,0,0,.19,1.07,3.45,3.45,0,0,0,.93,1.36A4.26,4.26,0,0,0,54,30.64a10,10,0,0,0,4.45.28,6.12,6.12,0,0,0,2-.65,3.72,3.72,0,0,0,.77-.52A3.4,3.4,0,0,0,62.31,26a2.66,2.66,0,0,0-.84-1.27,4.87,4.87,0,0,0-1.85-1l-.46-.12a18.84,18.84,0,0,0-2.54-.54,7,7,0,0,1-.69-.14,1.06,1.06,0,0,1-.3-.1.51.51,0,0,1-.26-.66l0,0a.93.93,0,0,1,.6-.46,2.17,2.17,0,0,1,1.38,0,1,1,0,0,1,.7,1h4a3.89,3.89,0,0,0-.24-1.36A2.39,2.39,0,0,0,61,20.24a3.85,3.85,0,0,0-1.06-.61,5.58,5.58,0,0,0-1.15-.31A11.52,11.52,0,0,0,56,19.15a8.82,8.82,0,0,0-1.61.24,4.74,4.74,0,0,0-2,.92,3.13,3.13,0,0,0-1.07,1.49A3.11,3.11,0,0,0,51.42,24a3,3,0,0,0,1.72,1.73,6.79,6.79,0,0,0,1.22.36Z"/><path d="M30.33,20.63a7.12,7.12,0,0,1,1.74-1.13,4.54,4.54,0,0,1,3.32-.24,3.57,3.57,0,0,1,2.5,2.44,5.63,5.63,0,0,1,.27,1.73v7.24H33.7V24.16a1.77,1.77,0,0,0-.09-.61,1.24,1.24,0,0,0-.72-.81,1.68,1.68,0,0,0-2.12.71,1.82,1.82,0,0,0-.27,1v6.25H26.2V19.44h4.05Z"/><path d="M80,20.63a7,7,0,0,1,1.75-1.13A4.51,4.51,0,0,1,85,19.26a3.57,3.57,0,0,1,2.5,2.44,5.35,5.35,0,0,1,.27,1.73v7.24H83.34V24.16a2,2,0,0,0-.09-.61,1.24,1.24,0,0,0-.72-.81,1.7,1.7,0,0,0-2.13.71,1.9,1.9,0,0,0-.26,1v6.25H75.83V19.44h4Z"/><rect x="88.66" y="19.45" width="4.2" height="11.23"/><rect x="88.66" y="14.96" width="4.2" height="2.97"/><path d="M104.13,29.21a5.49,5.49,0,0,1-3,1.67,7.48,7.48,0,0,1-2.36.11,5.48,5.48,0,0,1-2.88-1.12A6.07,6.07,0,0,1,94.19,28a5.29,5.29,0,0,1-.67-1.84,6.14,6.14,0,0,1,.14-2.73A5.52,5.52,0,0,1,98,19.32a7.39,7.39,0,0,1,3.53.08,4.81,4.81,0,0,1,2.21,1.21,4.38,4.38,0,0,1,1,1.26,3.43,3.43,0,0,1,.4,1.83h-3.84a1.85,1.85,0,0,0-.75-1.24,1.57,1.57,0,0,0-1.78-.07,1.83,1.83,0,0,0-.78,1,5.17,5.17,0,0,0,0,3.09,2.28,2.28,0,0,0,.67,1.11,1.6,1.6,0,0,0,1.38.44,1.31,1.31,0,0,0,.82-.44,1.73,1.73,0,0,0,.42-.87c0-.22.06-.44.08-.67h4A4.06,4.06,0,0,1,104.13,29.21Z"/><rect class="cls-1" width="105.31" height="46"/></svg>